<mxfile version="13.7.1" type="github" host="app.diagrams.net" modified="2020-09-15T05:55:01.927Z" agent="5.0 (Windows NT 10.0; Win64; x64) AppleWebKit/537.36 (KHTML, like Gecko) Chrome/64.0.3282.140 Safari/537.36 Edge/17.17134" etag="x0EYpC6W9RFGeCEJx05M">
  <diagram id="C5RBs43oDa-KdzZeNtuy" name="Page-1">
    <mxGraphModel grid="1" shadow="0" math="0" pageHeight="1169" pageWidth="827" pageScale="1" page="1" fold="1" arrows="1" connect="1" tooltips="1" guides="1" gridSize="10" dy="612" dx="573">
      <root>
        <mxCell id="WIyWlLk6GJQsqaUBKTNV-0" />
        <mxCell id="WIyWlLk6GJQsqaUBKTNV-1" parent="WIyWlLk6GJQsqaUBKTNV-0" />
        <mxCell id="ubKofRE39UMZp3o0Q8Fq-5" value="" parent="WIyWlLk6GJQsqaUBKTNV-1" edge="1" target="ubKofRE39UMZp3o0Q8Fq-4" source="ubKofRE39UMZp3o0Q8Fq-2" style="edgeStyle=orthogonalEdgeStyle;rounded=0;orthogonalLoop=1;jettySize=auto;html=1;">
          <mxGeometry as="geometry" relative="1" />
        </mxCell>
        <mxCell id="ubKofRE39UMZp3o0Q8Fq-2" value="openMC中子输运计算" parent="WIyWlLk6GJQsqaUBKTNV-1" style="rounded=0;whiteSpace=wrap;html=1;" vertex="1">
          <mxGeometry as="geometry" height="40" width="145" y="160" x="127.5" />
        </mxCell>
        <mxCell id="ubKofRE39UMZp3o0Q8Fq-10" parent="WIyWlLk6GJQsqaUBKTNV-1" edge="1" target="ubKofRE39UMZp3o0Q8Fq-2" source="ubKofRE39UMZp3o0Q8Fq-3" style="edgeStyle=orthogonalEdgeStyle;rounded=0;orthogonalLoop=1;jettySize=auto;html=1;exitX=0.5;exitY=1;exitDx=0;exitDy=0;entryX=0.5;entryY=0;entryDx=0;entryDy=0;">
          <mxGeometry as="geometry" relative="1" />
        </mxCell>
        <mxCell id="ubKofRE39UMZp3o0Q8Fq-3" value="&lt;span style=&quot;text-align: center ; color: rgb(0 , 0 , 0) ; text-transform: none ; line-height: 14.4px ; text-indent: 0px ; letter-spacing: normal ; font-size: 12px ; font-style: normal ; font-variant: normal ; font-weight: 400 ; text-decoration: none ; word-spacing: 0px ; display: inline ; word-wrap: normal ; float: none ; background-color: transparent&quot;&gt;预设温度分布和几何参数&lt;/span&gt;" parent="WIyWlLk6GJQsqaUBKTNV-1" style="ellipse;whiteSpace=wrap;html=1;" vertex="1">
          <mxGeometry as="geometry" height="50" width="160" y="70" x="120" />
        </mxCell>
        <mxCell id="ubKofRE39UMZp3o0Q8Fq-8" value="" parent="WIyWlLk6GJQsqaUBKTNV-1" edge="1" target="ubKofRE39UMZp3o0Q8Fq-7" source="ubKofRE39UMZp3o0Q8Fq-4" style="edgeStyle=orthogonalEdgeStyle;rounded=0;orthogonalLoop=1;jettySize=auto;html=1;">
          <mxGeometry as="geometry" relative="1" />
        </mxCell>
        <mxCell id="ubKofRE39UMZp3o0Q8Fq-4" value="热工水力计算程序" parent="WIyWlLk6GJQsqaUBKTNV-1" style="whiteSpace=wrap;html=1;rounded=0;" vertex="1">
          <mxGeometry as="geometry" height="40" width="120" y="250" x="140" />
        </mxCell>
        <mxCell id="ubKofRE39UMZp3o0Q8Fq-6" value="功率的空间分布" parent="WIyWlLk6GJQsqaUBKTNV-1" style="text;html=1;align=center;verticalAlign=middle;resizable=0;points=[];autosize=1;" vertex="1">
          <mxGeometry as="geometry" height="20" width="100" y="230" x="90" />
        </mxCell>
        <mxCell id="ubKofRE39UMZp3o0Q8Fq-12" value="" parent="WIyWlLk6GJQsqaUBKTNV-1" edge="1" target="ubKofRE39UMZp3o0Q8Fq-18" source="ubKofRE39UMZp3o0Q8Fq-7" style="edgeStyle=orthogonalEdgeStyle;rounded=0;orthogonalLoop=1;jettySize=auto;html=1;entryX=0.5;entryY=0;entryDx=0;entryDy=0;">
          <mxGeometry as="geometry" relative="1">
            <mxPoint as="targetPoint" y="570" x="205" />
          </mxGeometry>
        </mxCell>
        <mxCell id="ubKofRE39UMZp3o0Q8Fq-7" value="力学计算程序" parent="WIyWlLk6GJQsqaUBKTNV-1" style="whiteSpace=wrap;html=1;rounded=0;" vertex="1">
          <mxGeometry as="geometry" height="40" width="120" y="340" x="140" />
        </mxCell>
        <mxCell id="ubKofRE39UMZp3o0Q8Fq-15" value="" parent="WIyWlLk6GJQsqaUBKTNV-1" edge="1" target="ubKofRE39UMZp3o0Q8Fq-17" source="ubKofRE39UMZp3o0Q8Fq-9" style="edgeStyle=orthogonalEdgeStyle;rounded=0;orthogonalLoop=1;jettySize=auto;html=1;entryX=0;entryY=0.5;entryDx=0;entryDy=0;">
          <mxGeometry as="geometry" relative="1">
            <mxPoint as="targetPoint" y="440" x="370" />
            <Array as="points">
              <mxPoint y="310" x="350" />
              <mxPoint y="360" x="350" />
            </Array>
          </mxGeometry>
        </mxCell>
        <mxCell id="ubKofRE39UMZp3o0Q8Fq-9" value="温度场分布" parent="WIyWlLk6GJQsqaUBKTNV-1" style="text;html=1;align=center;verticalAlign=middle;resizable=0;points=[];autosize=1;" vertex="1">
          <mxGeometry as="geometry" height="20" width="80" y="300" x="200" />
        </mxCell>
        <mxCell id="ubKofRE39UMZp3o0Q8Fq-28" value="" parent="WIyWlLk6GJQsqaUBKTNV-1" edge="1" target="ubKofRE39UMZp3o0Q8Fq-17" source="ubKofRE39UMZp3o0Q8Fq-13" style="edgeStyle=orthogonalEdgeStyle;rounded=0;orthogonalLoop=1;jettySize=auto;html=1;entryX=0;entryY=0.5;entryDx=0;entryDy=0;exitX=1.012;exitY=0.486;exitDx=0;exitDy=0;exitPerimeter=0;">
          <mxGeometry as="geometry" relative="1">
            <mxPoint as="targetPoint" y="540" x="430" />
            <Array as="points">
              <mxPoint y="400" x="350" />
              <mxPoint y="360" x="350" />
            </Array>
          </mxGeometry>
        </mxCell>
        <mxCell id="ubKofRE39UMZp3o0Q8Fq-13" value="燃料芯部的结构位移" parent="WIyWlLk6GJQsqaUBKTNV-1" style="text;html=1;align=center;verticalAlign=middle;resizable=0;points=[];autosize=1;" vertex="1">
          <mxGeometry as="geometry" height="20" width="120" y="390" x="200" />
        </mxCell>
        <mxCell id="ubKofRE39UMZp3o0Q8Fq-30" parent="WIyWlLk6GJQsqaUBKTNV-1" edge="1" target="ubKofRE39UMZp3o0Q8Fq-2" source="ubKofRE39UMZp3o0Q8Fq-17" style="edgeStyle=orthogonalEdgeStyle;rounded=0;orthogonalLoop=1;jettySize=auto;html=1;exitX=0.5;exitY=0;exitDx=0;exitDy=0;entryX=0.5;entryY=0;entryDx=0;entryDy=0;">
          <mxGeometry as="geometry" relative="1">
            <mxPoint as="targetPoint" y="150" x="360" />
          </mxGeometry>
        </mxCell>
        <mxCell id="ubKofRE39UMZp3o0Q8Fq-17" value="&lt;span style=&quot;text-align: center ; color: rgb(0 , 0 , 0) ; text-transform: none ; line-height: 14.4px ; text-indent: 0px ; letter-spacing: normal ; font-size: 12px ; font-style: normal ; font-variant: normal ; font-weight: 400 ; text-decoration: none ; word-spacing: 0px ; display: inline ; word-wrap: normal ; float: none ; background-color: transparent&quot;&gt;新的温度分布和几何参数&lt;/span&gt;" parent="WIyWlLk6GJQsqaUBKTNV-1" style="ellipse;whiteSpace=wrap;html=1;" vertex="1">
          <mxGeometry as="geometry" height="50" width="150" y="335" x="370" />
        </mxCell>
        <mxCell id="ubKofRE39UMZp3o0Q8Fq-20" value="" parent="WIyWlLk6GJQsqaUBKTNV-1" edge="1" target="ubKofRE39UMZp3o0Q8Fq-19" source="ubKofRE39UMZp3o0Q8Fq-18" style="edgeStyle=orthogonalEdgeStyle;rounded=0;orthogonalLoop=1;jettySize=auto;html=1;">
          <mxGeometry as="geometry" relative="1" />
        </mxCell>
        <mxCell id="ubKofRE39UMZp3o0Q8Fq-31" parent="WIyWlLk6GJQsqaUBKTNV-1" edge="1" target="ubKofRE39UMZp3o0Q8Fq-17" source="ubKofRE39UMZp3o0Q8Fq-18" style="edgeStyle=orthogonalEdgeStyle;rounded=0;orthogonalLoop=1;jettySize=auto;html=1;exitX=1;exitY=0.5;exitDx=0;exitDy=0;entryX=0.5;entryY=1;entryDx=0;entryDy=0;">
          <mxGeometry as="geometry" relative="1" />
        </mxCell>
        <mxCell id="ubKofRE39UMZp3o0Q8Fq-18" value="是否收敛？" parent="WIyWlLk6GJQsqaUBKTNV-1" style="rhombus;whiteSpace=wrap;html=1;" vertex="1">
          <mxGeometry as="geometry" height="60" width="132.5" y="430" x="133.75" />
        </mxCell>
        <mxCell id="ubKofRE39UMZp3o0Q8Fq-19" value="迭代结束，耦合完成" parent="WIyWlLk6GJQsqaUBKTNV-1" style="whiteSpace=wrap;html=1;" vertex="1">
          <mxGeometry as="geometry" height="30" width="125" y="530" x="137.5" />
        </mxCell>
        <mxCell id="ubKofRE39UMZp3o0Q8Fq-21" value="是" parent="WIyWlLk6GJQsqaUBKTNV-1" style="text;html=1;align=center;verticalAlign=middle;resizable=0;points=[];autosize=1;" vertex="1">
          <mxGeometry as="geometry" height="20" width="30" y="490" x="200" />
        </mxCell>
        <mxCell id="ubKofRE39UMZp3o0Q8Fq-22" value="否" parent="WIyWlLk6GJQsqaUBKTNV-1" style="text;html=1;align=center;verticalAlign=middle;resizable=0;points=[];autosize=1;" vertex="1">
          <mxGeometry as="geometry" height="20" width="30" y="440" x="272.5" />
        </mxCell>
      </root>
    </mxGraphModel>
  </diagram>
</mxfile>
